<?xml version="1.0" encoding="UTF-8" standalone="no"?>
<!DOCTYPE svg PUBLIC "-//W3C//DTD SVG 1.1//EN"
 "http://www.w3.org/Graphics/SVG/1.1/DTD/svg11.dtd">
<!-- Generated by graphviz version 2.43.0 (0)
 -->
<!-- Title: TCP_Lite_State_Diagram Pages: 1 -->
<svg width="422pt" height="1062pt"
 viewBox="0.00 0.00 422.18 1061.86" xmlns="http://www.w3.org/2000/svg" xmlns:xlink="http://www.w3.org/1999/xlink">
<g id="graph0" class="graph" transform="scale(1 1) rotate(0) translate(4 1057.86)">
<title>TCP_Lite_State_Diagram</title>
<polygon fill="white" stroke="transparent" points="-4,4 -4,-1057.86 418.18,-1057.86 418.18,4 -4,4"/>
<!-- CLOSED -->
<g id="node1" class="node">
<title>CLOSED</title>
<ellipse fill="none" stroke="black" cx="226.18" cy="-1002.52" rx="51.19" ry="51.19"/>
<text text-anchor="middle" x="226.18" y="-998.82" font-family="Times,serif" font-size="14.00">CLOSED</text>
</g>
<!-- CLIENT_INIT -->
<g id="node2" class="node">
<title>CLIENT_INIT</title>
<ellipse fill="none" stroke="black" cx="96.18" cy="-848.55" rx="51.74" ry="51.74"/>
<text text-anchor="middle" x="96.18" y="-852.35" font-family="Times,serif" font-size="14.00">CLIENT</text>
<text text-anchor="middle" x="96.18" y="-837.35" font-family="Times,serif" font-size="14.00">INIT</text>
</g>
<!-- CLOSED&#45;&gt;CLIENT_INIT -->
<g id="edge1" class="edge">
<title>CLOSED&#45;&gt;CLIENT_INIT</title>
<path fill="none" stroke="black" d="M175.33,-994.82C137.91,-986.94 89.49,-969.89 65.18,-933.17 58.57,-923.18 58.79,-911.6 62.31,-900.29"/>
<polygon fill="black" stroke="black" points="65.6,-901.49 65.96,-890.9 59.07,-898.95 65.6,-901.49"/>
<text text-anchor="middle" x="117.18" y="-921.97" font-family="Times,serif" font-size="14.00">client data pkt</text>
</g>
<!-- CLIENT_INIT&#45;&gt;CLOSED -->
<g id="edge2" class="edge">
<title>CLIENT_INIT&#45;&gt;CLOSED</title>
<path fill="none" stroke="black" d="M134.86,-882.99C146.42,-893.73 158.78,-906.01 169.18,-918.17 177.55,-927.94 185.8,-938.96 193.32,-949.71"/>
<polygon fill="black" stroke="black" points="190.63,-951.98 199.18,-958.24 196.4,-948.01 190.63,-951.98"/>
<text text-anchor="middle" x="207.18" y="-921.97" font-family="Times,serif" font-size="14.00">timeout</text>
</g>
<!-- SERVER_WAIT -->
<g id="node3" class="node">
<title>SERVER_WAIT</title>
<ellipse fill="none" stroke="black" cx="96.18" cy="-705.49" rx="54.39" ry="54.39"/>
<text text-anchor="middle" x="96.18" y="-709.29" font-family="Times,serif" font-size="14.00">SERVER</text>
<text text-anchor="middle" x="96.18" y="-694.29" font-family="Times,serif" font-size="14.00">WAIT</text>
</g>
<!-- CLIENT_INIT&#45;&gt;SERVER_WAIT -->
<g id="edge3" class="edge">
<title>CLIENT_INIT&#45;&gt;SERVER_WAIT</title>
<path fill="none" stroke="black" d="M96.18,-796.62C96.18,-788.12 96.18,-779.19 96.18,-770.41"/>
<polygon fill="black" stroke="black" points="99.68,-770.19 96.18,-760.19 92.68,-770.19 99.68,-770.19"/>
</g>
<!-- ESTABLISHED -->
<g id="node4" class="node">
<title>ESTABLISHED</title>
<ellipse fill="none" stroke="black" cx="96.18" cy="-520.1" rx="79.89" ry="79.89"/>
<text text-anchor="middle" x="96.18" y="-516.4" font-family="Times,serif" font-size="14.00">ESTABLISHED</text>
</g>
<!-- SERVER_WAIT&#45;&gt;ESTABLISHED -->
<g id="edge4" class="edge">
<title>SERVER_WAIT&#45;&gt;ESTABLISHED</title>
<path fill="none" stroke="black" d="M96.18,-650.95C96.18,-638.19 96.18,-624.23 96.18,-610.34"/>
<polygon fill="black" stroke="black" points="99.68,-610.26 96.18,-600.26 92.68,-610.26 99.68,-610.26"/>
<text text-anchor="middle" x="151.18" y="-621.84" font-family="Times,serif" font-size="14.00">server data pkt</text>
</g>
<!-- FIN_WAIT_1 -->
<g id="node5" class="node">
<title>FIN_WAIT_1</title>
<ellipse fill="none" stroke="black" cx="46.18" cy="-341.07" rx="38.37" ry="38.37"/>
<text text-anchor="middle" x="46.18" y="-352.37" font-family="Times,serif" font-size="14.00">FIN</text>
<text text-anchor="middle" x="46.18" y="-337.37" font-family="Times,serif" font-size="14.00">WAIT</text>
<text text-anchor="middle" x="46.18" y="-322.37" font-family="Times,serif" font-size="14.00">1</text>
</g>
<!-- ESTABLISHED&#45;&gt;FIN_WAIT_1 -->
<g id="edge5" class="edge">
<title>ESTABLISHED&#45;&gt;FIN_WAIT_1</title>
<path fill="none" stroke="black" d="M56.76,-450.4C52.86,-441.15 49.49,-431.59 47.18,-422.15 44.63,-411.71 43.52,-400.28 43.23,-389.4"/>
<polygon fill="black" stroke="black" points="46.73,-389.17 43.17,-379.19 39.73,-389.21 46.73,-389.17"/>
<text text-anchor="middle" x="94.18" y="-410.95" font-family="Times,serif" font-size="14.00">passive close</text>
</g>
<!-- CLOSE_WAIT -->
<g id="node7" class="node">
<title>CLOSE_WAIT</title>
<ellipse fill="none" stroke="black" cx="174.18" cy="-341.07" rx="48.17" ry="48.17"/>
<text text-anchor="middle" x="174.18" y="-344.87" font-family="Times,serif" font-size="14.00">CLOSE</text>
<text text-anchor="middle" x="174.18" y="-329.87" font-family="Times,serif" font-size="14.00">WAIT</text>
</g>
<!-- ESTABLISHED&#45;&gt;CLOSE_WAIT -->
<g id="edge13" class="edge">
<title>ESTABLISHED&#45;&gt;CLOSE_WAIT</title>
<path fill="none" stroke="black" d="M129.84,-447.52C133.72,-439 137.57,-430.4 141.18,-422.15 144.99,-413.46 148.92,-404.19 152.69,-395.16"/>
<polygon fill="black" stroke="black" points="155.95,-396.43 156.54,-385.86 149.48,-393.75 155.95,-396.43"/>
<text text-anchor="middle" x="189.18" y="-410.95" font-family="Times,serif" font-size="14.00">active close</text>
</g>
<!-- FIN_WAIT_2 -->
<g id="node6" class="node">
<title>FIN_WAIT_2</title>
<ellipse fill="none" stroke="black" cx="38.18" cy="-186.09" rx="38.37" ry="38.37"/>
<text text-anchor="middle" x="38.18" y="-197.39" font-family="Times,serif" font-size="14.00">FIN</text>
<text text-anchor="middle" x="38.18" y="-182.39" font-family="Times,serif" font-size="14.00">WAIT</text>
<text text-anchor="middle" x="38.18" y="-167.39" font-family="Times,serif" font-size="14.00">2</text>
</g>
<!-- FIN_WAIT_1&#45;&gt;FIN_WAIT_2 -->
<g id="edge6" class="edge">
<title>FIN_WAIT_1&#45;&gt;FIN_WAIT_2</title>
<path fill="none" stroke="black" d="M44.23,-302.65C43.15,-282.11 41.81,-256.43 40.66,-234.49"/>
<polygon fill="black" stroke="black" points="44.15,-234.2 40.13,-224.39 37.16,-234.56 44.15,-234.2"/>
<text text-anchor="middle" x="57.18" y="-263.79" font-family="Times,serif" font-size="14.00">FIN</text>
</g>
<!-- CLOSING -->
<g id="node8" class="node">
<title>CLOSING</title>
<ellipse fill="none" stroke="black" cx="150.18" cy="-186.09" rx="55.79" ry="55.79"/>
<text text-anchor="middle" x="150.18" y="-182.39" font-family="Times,serif" font-size="14.00">CLOSING</text>
</g>
<!-- FIN_WAIT_1&#45;&gt;CLOSING -->
<g id="edge7" class="edge">
<title>FIN_WAIT_1&#45;&gt;CLOSING</title>
<path fill="none" stroke="black" d="M67.23,-309.11C80.44,-289.68 97.84,-264.09 113.29,-241.36"/>
<polygon fill="black" stroke="black" points="116.38,-243.04 119.11,-232.8 110.59,-239.11 116.38,-243.04"/>
<text text-anchor="middle" x="138.68" y="-263.79" font-family="Times,serif" font-size="14.00">ACK of FIN</text>
</g>
<!-- TIME_WAIT -->
<g id="node10" class="node">
<title>TIME_WAIT</title>
<ellipse fill="none" stroke="black" cx="150.18" cy="-39.6" rx="39.7" ry="39.7"/>
<text text-anchor="middle" x="150.18" y="-43.4" font-family="Times,serif" font-size="14.00">TIME</text>
<text text-anchor="middle" x="150.18" y="-28.4" font-family="Times,serif" font-size="14.00">WAIT</text>
</g>
<!-- FIN_WAIT_2&#45;&gt;TIME_WAIT -->
<g id="edge8" class="edge">
<title>FIN_WAIT_2&#45;&gt;TIME_WAIT</title>
<path fill="none" stroke="black" d="M43.75,-147.87C47.65,-131.14 54.21,-111.91 65.18,-97.2 75.72,-83.07 90.88,-71.38 105.49,-62.37"/>
<polygon fill="black" stroke="black" points="107.62,-65.18 114.47,-57.11 104.07,-59.14 107.62,-65.18"/>
<text text-anchor="middle" x="105.68" y="-101" font-family="Times,serif" font-size="14.00">ACK of FIN</text>
</g>
<!-- LAST_ACK -->
<g id="node9" class="node">
<title>LAST_ACK</title>
<ellipse fill="none" stroke="black" cx="262.18" cy="-186.09" rx="38.37" ry="38.37"/>
<text text-anchor="middle" x="262.18" y="-189.89" font-family="Times,serif" font-size="14.00">LAST</text>
<text text-anchor="middle" x="262.18" y="-174.89" font-family="Times,serif" font-size="14.00">ACK</text>
</g>
<!-- CLOSE_WAIT&#45;&gt;LAST_ACK -->
<g id="edge10" class="edge">
<title>CLOSE_WAIT&#45;&gt;LAST_ACK</title>
<path fill="none" stroke="black" d="M192.59,-296.55C198.14,-284.49 204.54,-271.54 211.18,-259.99 217.8,-248.47 225.73,-236.46 233.34,-225.6"/>
<polygon fill="black" stroke="black" points="236.4,-227.33 239.35,-217.16 230.7,-223.28 236.4,-227.33"/>
<text text-anchor="middle" x="229.68" y="-263.79" font-family="Times,serif" font-size="14.00">close</text>
</g>
<!-- CLOSING&#45;&gt;TIME_WAIT -->
<g id="edge9" class="edge">
<title>CLOSING&#45;&gt;TIME_WAIT</title>
<path fill="none" stroke="black" d="M150.18,-130.05C150.18,-116.71 150.18,-102.54 150.18,-89.5"/>
<polygon fill="black" stroke="black" points="153.68,-89.33 150.18,-79.33 146.68,-89.33 153.68,-89.33"/>
<text text-anchor="middle" x="190.68" y="-101" font-family="Times,serif" font-size="14.00">ACK of FIN</text>
</g>
<!-- LAST_ACK&#45;&gt;CLOSED -->
<g id="edge11" class="edge">
<title>LAST_ACK&#45;&gt;CLOSED</title>
<path fill="none" stroke="black" d="M262.18,-224.5C262.18,-255.47 262.18,-300.63 262.18,-340.07 262.18,-849.55 262.18,-849.55 262.18,-849.55 262.18,-881.44 254.58,-916.11 246.37,-944.27"/>
<polygon fill="black" stroke="black" points="242.99,-943.36 243.45,-953.95 249.69,-945.39 242.99,-943.36"/>
<text text-anchor="middle" x="302.68" y="-621.84" font-family="Times,serif" font-size="14.00">ACK of FIN</text>
</g>
<!-- TIME_WAIT&#45;&gt;CLOSED -->
<g id="edge12" class="edge">
<title>TIME_WAIT&#45;&gt;CLOSED</title>
<path fill="none" stroke="black" d="M188.82,-48.88C248.97,-64.3 358.18,-103.53 358.18,-185.09 358.18,-849.55 358.18,-849.55 358.18,-849.55 358.18,-900.56 315.27,-942.8 278.38,-969.69"/>
<polygon fill="black" stroke="black" points="276.28,-966.9 270.14,-975.53 280.32,-972.61 276.28,-966.9"/>
<text text-anchor="middle" x="386.18" y="-516.4" font-family="Times,serif" font-size="14.00">timeout</text>
</g>
</g>
</svg>
